<svg width="23.999999999999996" height="23.999999999999996" xmlns="http://www.w3.org/2000/svg">

 <g>
  <title>background</title>
  <rect fill="none" id="canvas_background" height="402" width="582" y="-1" x="-1"/>
 </g>
 <g>
  <title>Layer 1</title>
  <path fill="#ffffff" id="svg_1" d="m23.944,2.080076c-0.369,-0.026 -0.729,-0.038 -1.083,-0.038c-7.671,0 -12.038,5.848 -13.627,10.554l4.216,4.215c4.842,-1.734 10.55,-5.939 10.55,-13.528c0,-0.392 -0.024,-0.793 -0.056,-1.203zm-10.058,12.645l-2.571,-2.571c1.089,-2.55 4.185,-7.978 10.88,-8.312c-0.224,5.149 -3.604,8.856 -8.309,10.883zm4.88,1.371c-0.488,0.333 -0.973,0.633 -1.452,0.901c-0.167,0.794 -0.591,1.643 -1.205,2.366c-0.001,-0.514 -0.145,-1.032 -0.396,-1.55c-0.441,0.2 -0.86,0.373 -1.261,0.524c0.589,1.524 -0.011,2.649 -0.816,3.705c1.156,-0.087 2.369,-0.653 3.324,-1.609c1.032,-1.031 1.755,-2.518 1.806,-4.337zm-10.542,-5.77c-0.517,-0.249 -1.032,-0.39 -1.545,-0.392c0.716,-0.607 1.556,-1.029 2.343,-1.2c0.28,-0.493 0.595,-0.979 0.926,-1.457c-1.819,0.049 -3.307,0.774 -4.34,1.805c-0.955,0.955 -1.52,2.169 -1.608,3.324c1.056,-0.806 2.183,-1.406 3.706,-0.815c0.155,-0.42 0.326,-0.842 0.518,-1.265zm6.901,0.591c-0.35,-0.348 -0.35,-0.913 0,-1.261c0.348,-0.348 0.912,-0.348 1.261,0c0.349,0.349 0.349,0.914 0,1.262c-0.349,0.349 -0.913,0.349 -1.261,-0.001zm4.414,-4.414c-0.696,-0.696 -1.826,-0.696 -2.522,0c-0.697,0.696 -0.697,1.827 0,2.523c0.696,0.697 1.826,0.697 2.523,0c0.695,-0.696 0.695,-1.827 -0.001,-2.523zm-1.703,1.703c-0.243,-0.244 -0.243,-0.64 0,-0.883c0.242,-0.244 0.64,-0.244 0.885,0c0.242,0.243 0.241,0.639 0,0.883c-0.245,0.243 -0.642,0.243 -0.885,0zm-6.492,9.024c-1.734,1.844 -3.656,2.787 -5.72,2.787c-3.2,0 -5.624,-2.354 -5.624,-5.311c0,-1.485 0.611,-3.122 2.043,-4.689c-3.201,5.137 1.126,10.128 6.694,4.607l0.765,0.765c-0.91,1.061 -1.661,1.977 -2.971,2.638c1.344,0.057 2.87,-0.745 4.017,-1.593l0.796,0.796z"/>
 </g>
</svg>